<?xml version="1.0" standalone="no"?>
<!DOCTYPE svg PUBLIC "-//W3C//DTD SVG 20010904//EN"
 "http://www.w3.org/TR/2001/REC-SVG-20010904/DTD/svg10.dtd">
<svg version="1.0" xmlns="http://www.w3.org/2000/svg"
 width="76.000000pt" height="52.000000pt" viewBox="0 0 76.000000 52.000000"
 preserveAspectRatio="xMidYMid meet">

<g transform="translate(0.000000,52.000000) scale(0.100000,-0.100000)"
fill="#000000" stroke="none">
<path d="M611 494 c-12 -15 -21 -31 -21 -36 0 -5 -20 -28 -45 -51 -25 -24 -45
-49 -45 -56 0 -8 -7 -10 -21 -6 -13 4 -27 1 -39 -10 -17 -15 -18 -15 -16 0 0
10 -6 22 -15 28 -13 8 -25 3 -58 -23 -42 -34 -68 -35 -38 -2 16 18 16 20 -1
35 -26 24 -44 21 -76 -12 -20 -20 -27 -37 -23 -50 4 -15 0 -21 -13 -21 -13 0
-19 11 -24 39 -3 22 -10 42 -15 45 -5 4 -24 -12 -41 -34 -17 -22 -37 -40 -44
-40 -17 0 -51 -38 -43 -47 4 -3 2 -12 -4 -20 -7 -8 -9 -29 -5 -53 5 -31 3 -42
-9 -46 -19 -8 -19 -44 -1 -89 16 -38 33 -45 43 -17 4 9 12 21 20 25 7 4 13 17
13 27 0 11 7 20 15 20 8 0 15 -5 15 -10 0 -18 49 -35 62 -22 21 21 45 13 88
-28 36 -34 48 -40 85 -40 24 0 47 5 50 10 4 6 21 8 39 5 39 -8 106 27 106 54
0 10 2 20 5 23 8 8 74 -26 75 -38 0 -6 6 -17 14 -23 23 -19 40 12 32 61 -6 34
-4 39 7 30 23 -19 28 -1 7 26 -11 13 -18 28 -15 32 3 4 -1 13 -9 19 -10 9 -16
8 -26 -4 -35 -42 -37 24 -3 89 15 29 16 29 23 10 11 -29 54 -56 68 -42 7 7 4
21 -12 47 -14 22 -25 60 -29 96 -4 36 -12 64 -21 71 -11 8 -12 14 -5 21 13 13
3 33 -16 33 -7 0 -23 -12 -34 -26z"/>
</g>
</svg>
